<?xml version="1.0" encoding="iso-8859-1"?>
<!-- Generator: Adobe Illustrator 19.1.0, SVG Export Plug-In . SVG Version: 6.00 Build 0)  -->
<svg xmlns="http://www.w3.org/2000/svg" xmlns:xlink="http://www.w3.org/1999/xlink" version="1.1" id="Capa_1" x="0px" y="0px" viewBox="0 0 47.25 47.25" style="enable-background:new 0 0 47.25 47.25;" xml:space="preserve" width="512px" height="512px">
<g>
	<path d="M41.834,13.963c-0.251-0.19-0.575-0.249-0.876-0.164l-9.364,2.662v-6.378C31.594,4.523,27.07,0,21.511,0   c-5.56,0-10.083,4.523-10.083,10.083v0.991l-5.824,2.657c-0.356,0.163-0.585,0.518-0.585,0.91s0.229,0.747,0.585,0.91l5.824,2.656   V26.5c0,0.056,0.023,0.105,0.032,0.159c0.254,6.195,4.169,11.452,9.647,13.654v5.937c0,0.553,0.448,1,1,1s1-0.447,1-1v-5.296   c1.195,0.298,2.437,0.474,3.723,0.474c0.23,0,0.454-0.025,0.682-0.035v4.857c0,0.553,0.447,1,1,1s1-0.447,1-1v-5.072   c7.217-1.275,12.721-7.576,12.721-15.153V14.761C42.231,14.448,42.084,14.152,41.834,13.963z M8.428,14.641l3-1.369v2.737   L8.428,14.641z M40.231,26.025c0,7.39-6.013,13.402-13.402,13.402s-13.402-6.013-13.402-13.402V10.083   C13.427,5.626,17.054,2,21.511,2s8.083,3.626,8.083,8.083v9.25c0,0.552,0.447,1,1,1s1-0.448,1-1V18.54l8.638-2.456V26.025z" fill="#555555"/>
	<circle cx="19.261" cy="13.772" r="1.529" fill="#555555"/>
	<path d="M29.146,24.286c-0.474-0.287-1.088-0.135-1.373,0.338c-0.286,0.473-0.135,1.087,0.338,1.373   c1.22,0.739,3.312,1.365,6.597,0.514c-0.632,3.509-3.396,5.854-7.114,5.854c-3.38,0-6.282-2.294-7.057-5.579   c-0.126-0.537-0.667-0.868-1.203-0.744c-0.538,0.127-0.871,0.666-0.744,1.203c0.988,4.192,4.69,7.12,9.003,7.12   c5.271,0,9.161-3.883,9.25-9.233c0.005-0.328-0.15-0.638-0.417-0.829c-0.267-0.19-0.61-0.239-0.919-0.129   C32.813,25.135,30.614,25.174,29.146,24.286z" fill="#555555"/>
</g>
<g>
</g>
<g>
</g>
<g>
</g>
<g>
</g>
<g>
</g>
<g>
</g>
<g>
</g>
<g>
</g>
<g>
</g>
<g>
</g>
<g>
</g>
<g>
</g>
<g>
</g>
<g>
</g>
<g>
</g>
</svg>
