<?xml version="1.0" encoding="utf-8"?>
<!-- Generator: Adobe Illustrator 21.0.0, SVG Export Plug-In . SVG Version: 6.00 Build 0)  -->
<svg version="1.1" id="Layer_1" xmlns="http://www.w3.org/2000/svg" xmlns:xlink="http://www.w3.org/1999/xlink" x="0px" y="0px"
	 viewBox="0 0 120 80" style="enable-background:new 0 0 120 80;" xml:space="preserve">
<style type="text/css">
	.st0{fill:#CD2030;}
</style>
<path class="st0" d="M105.8,17.6c-4.3-3.8-28-17.7-27.4-16.1c0.2,0.6,5.4,5,11.8,9.7c13.1,10.1,21.6,19.4,22.2,24.2
	c0.7,6.1-3.7,8.5-10.3,5.7l-3.9-1.7l0.8-4.3c1-4.7,0.5-5.8-3-6.3c-2-0.3-2.5-0.9-3.1-3c-0.6-2.3-0.9-2.5-1.8-1.7
	c-0.6,0.5-0.8,1.3-0.4,1.8c0.3,0.4,0.1,0.8-0.5,0.9c-0.6,0.1-2-0.8-3.1-2.1c-1-1.2-2.2-1.9-2.7-1.5c-0.5,0.4,0,1.6,1.4,2.8
	c2.8,2.5,2.1,3.3-1.5,1.6c-2.3-1.1-2.7-1-2,0.4c0.5,0.9,2.2,2,3.6,2.5c1.6,0.5,2.5,1.2,2.1,1.5c-0.4,0.3-1.3,0.4-1.9,0.3
	c-0.7-0.2-1.4,0.1-1.5,0.7c-0.2,0.7,0.9,1.3,2.8,1.5c6.5,0.8,2.9,2.2-5,2c-19.5-0.6-23.3-0.9-26.8-2.4c-3.6-1.5-3.7-1.6-3-3.5
	c1.6-4.8-3.6-8.2-8.8-5.8c-2.5,1.3-3.7,0.9-9.8-2.5c-5.5-3-8.5-3.9-14-4.1c-4-0.2-7.2,0.1-7.4,0.5c-0.3,0.5-2.2,1.8-4.4,2.8
	c-5.3,2.6-6.5,5.3-4.2,9.3c2.1,3.7,6.6,6.2,15.7,8.2c10.2,2.3,10,2.2,8.1,5.7c-2.1,4.1-3.5,4.4-7.4,2.1c-2.8-1.7-3.1-2.3-2.5-3.8
	c1-2.7-0.4-3.4-2.1-1.1c-1.4,1.9-1.7,1.9-3.8-0.7c-1.3-1.5-2.6-2.5-3.1-2.1c-0.4,0.3-0.1,1.5,0.8,2.6c2,2.4,1.2,3-4.3,3.6
	c-4,0.3-5.7,1.5-4.5,3c0.3,0.3,2.2,0.1,4.2-0.4c4.4-1.2,6.4,0.2,2.9,1.9c-1.7,0.8-2,1.4-1.4,2.2c0.4,0.5,1.9,0.5,3.4-0.3
	c1.7-0.9,4.4-0.7,9.4,0.9c6.2,2,7.1,2,8.6,0.1c0.9-1.1,2.5-3.3,3.5-4.5l1.9-2.4l11,5.8c6,3.2,13,6.5,15.5,7.4
	c4.8,1.6,13.4,1.5,24.7-0.3l6.9-1.1l-4,3c-3.6,2.6-4.2,2.7-5.7,1.4c-1.3-1.1-2-1.2-2.6,0c-0.5,0.9-1.8,1.3-3.6,0.8
	c-3.7-0.8-3.8,0.9-0.1,2c3.7,1.2,3.1,2.8-1.4,3.2c-3.8,0.4-4.9,1-4,2.1c0.3,0.4,2.4,0.4,4.7,0c4.9-0.8,5.5,0.8,1.4,4.2
	c-1.6,1.3-2.9,3.1-2.8,3.7c0.1,0.7,1.8-0.2,4.4-2.4c4.5-3.7,6.1-3.6,4.8,0.2c-0.8,2.5,0.4,4.6,1.7,3.5c0.5-0.4,1-2.3,1.1-4.2
	c0.2-2.6,0.9-4,3.5-6.1c1.8-1.5,4.5-5.2,6.1-8l2.8-5.3l7-1.5c12.2-2.7,16.9-9.1,13.8-18.8C116.6,30.2,110.8,21.9,105.8,17.6z"/>
</svg>
