<?xml version="1.0" encoding="utf-8"?>
<!-- Generator: Adobe Illustrator 21.0.0, SVG Export Plug-In . SVG Version: 6.00 Build 0)  -->
<svg version="1.1" id="Layer_1" xmlns="http://www.w3.org/2000/svg" xmlns:xlink="http://www.w3.org/1999/xlink" x="0px" y="0px"
	 viewBox="0 0 337 50" style="enable-background:new 0 0 337 50;" xml:space="preserve">
<style type="text/css">
	.st0{fill:#CD2030;}
</style>
<path class="st0" d="M72.4,2.1c-5.2,1.6-6.3,3.1-2.3,3.1h2.5l-0.2,19.7c-0.3,19.7-0.3,19.8-2.5,20.1c-1.3,0.2-2.3,0.8-2.3,1.3
	s3.4,0.9,7.5,0.9s7.5-0.4,7.5-0.9s-1-1.1-2.2-1.3c-2.3-0.3-2.3-0.4-2.8-22.3l-0.5-22L72.4,2.1z"/>
<path class="st0" d="M269.4,2.1c-5.2,1.6-6.1,2.8-2.5,3.3c2,0.3,2.2,0.9,2.5,6.6l0.3,6.3l-4.9-0.7c-4.1-0.5-5.7-0.2-10.1,2
	c-6.2,3.2-9.1,7.4-9.1,13.3c0,7.9,3.8,13.8,9.7,14.9c3.8,0.7,8.3-0.8,10.9-3.7c2.4-2.6,3.7-2.4,3,0.6c-0.6,2.4-0.5,2.5,4.9,2.5
	c5.7,0,7.4-1.3,3-2.4l-2.5-0.6l-0.2-21.8l-0.3-21.8L269.4,2.1z M266.3,21.4c3.1,2.2,3.3,2.7,3.3,8.1c0,6.6-1.9,12.1-4.8,13.6
	c-7.9,4.2-15.8-4.7-13.7-15.5C252.5,19.8,259.6,16.9,266.3,21.4z"/>
<path class="st0" d="M10.2,3.2c-8.8,2.7-12.7,14.1-6.8,20c2.7,2.7,3.8,3,15.3,4.5c6.5,0.8,8.4,2.4,8.4,7.4c0,6-3.6,9.3-10.7,9.9
	c-3.5,0.3-6.7-0.1-9.1-1.1c-3.1-1.4-3.7-2.1-3.7-4.6c0-1.7-0.4-3.1-1-3.1c-0.5,0-1,2.2-1,4.9V46l5.1,1.2c16.4,4,30.7-7.8,24.4-20
	c-1.7-3.2-4.7-4.3-14.9-5.5C10.2,21,5.6,18,5.6,14.8c0-7.8,9.5-11.9,18.5-8.2c2.7,1.2,3.5,2.1,3.5,4c0,3.6,2,3.2,2.2-0.4
	c0-1.7,0.1-3.5,0.2-4.2C30.2,3.2,16.6,1.3,10.2,3.2z"/>
<path class="st0" d="M42.8,18.6c-3.5,1.6-4.6,3.4-4,6.3c0.3,1.4,0.7,1.2,1.8-1.2c2.1-4.2,7.8-4.8,11.5-1.1c4,4,3.3,5.2-4.4,7.1
	c-7.9,1.9-10.9,4.4-11.8,9.8c-0.4,2.9-0.1,4,2,6.1c3.5,3.5,7.5,3.4,12.3-0.5l3.9-3.1l0.3,2.6c0.3,2.4,0.7,2.6,4.8,2.6
	c4.5,0,6-1.4,2.4-2.3c-1.8-0.5-2-1.4-2-11.1c0-9.5-0.2-10.7-2.3-13.1C54.5,17.4,47.7,16.4,42.8,18.6z M54.6,34.6
	c0,3.7-0.5,4.8-3.1,7c-3.4,2.9-7,3.4-8.9,1.1c-1.6-1.9-1.6-6.1,0-8c1-1.3,8.5-4.2,11.3-4.4C54.3,30.2,54.6,32.2,54.6,34.6z"/>
<path class="st0" d="M93.8,18.6c-3.5,1.6-4.6,3.4-4,6.3c0.3,1.4,0.7,1.2,1.8-1.2c2.1-4.2,7.8-4.8,11.5-1.1c4,4,3.3,5.2-4.4,7.1
	c-7.9,1.9-10.9,4.4-11.8,9.8c-0.4,2.9-0.1,4,2,6.1c3.5,3.5,7.5,3.4,12.3-0.5l3.9-3.1l0.3,2.6c0.3,2.4,0.7,2.6,5.3,2.6
	c4.9,0,6.9-1.6,2.7-2.2c-2.2-0.3-2.3-0.8-2.8-11.5c-0.4-9.8-0.8-11.5-2.6-13.4C105.2,17.4,98.2,16.7,93.8,18.6z M105.6,34.5
	c0,4.9-2.4,8.3-6.7,9.3c-4.8,1.2-8.2-3.2-5.9-7.7c0.9-2,8.3-5.7,11.9-5.9C105.3,30.2,105.6,32.1,105.6,34.5z"/>
<path class="st0" d="M122.9,19.1c-5.8,1.5-6.8,2.8-2.5,3.3c2.7,0.3,2.7,0.3,3,9.3c0.4,11.5-0.1,13.5-3.3,13.5c-1.4,0-2.5,0.4-2.5,1
	c0,0.6,3.3,1,8,1c4.4,0,8-0.4,8-0.9s-1-1.1-2.2-1.3c-2.2-0.3-2.3-0.8-2.6-9.9c-0.3-9.5-0.2-9.8,2.4-11.8c5.4-4.3,10.8-1.8,11.7,5.4
	c0.4,2.5,0.4,7.2,0,10.5c-0.5,5.5-0.8,6-2.9,6c-1.3,0-2.4,0.4-2.4,1c0,0.6,3.3,1,8,1c4.4,0,8-0.4,8-0.9s-1-1.1-2.2-1.3
	c-2.2-0.3-2.3-0.8-2.6-10c-0.2-8.7-0.1-9.9,1.8-11.8c2.6-2.6,7.4-2.6,10,0c1.8,1.8,2,3.3,2,13v11h5c2.8,0,5-0.5,5-1
	c0-0.6-0.8-1-1.9-1c-2.5,0-3.1-2.6-3.1-13.7c0-9,0-9.1-3.2-11.8c-2.7-2.3-3.9-2.6-7.2-2.2c-2.3,0.3-4.9,1.6-6.3,3l-2.5,2.4l-2.8-2.9
	c-3.7-3.7-8.7-3.8-12.8-0.3c-3.7,3.1-4,3.1-4.4,0.2C128.1,17.7,128,17.7,122.9,19.1z"/>
<path class="st0" d="M182.8,18.6c-3.5,1.6-4.6,3.4-4,6.3c0.3,1.4,0.7,1.2,1.8-1.2c2.1-4.2,7.8-4.8,11.5-1.1c4,4,3.3,5.2-4.4,7.1
	c-7.9,1.9-10.9,4.4-11.8,9.8c-0.4,2.9-0.1,4,2,6.1c3.5,3.5,7.5,3.4,12.3-0.5l3.9-3.1l0.3,2.6c0.3,2.4,0.7,2.6,5.3,2.6
	c5.4,0,6.1-0.6,2.4-2c-2.4-0.9-2.5-1.2-2.5-11.4c0-9.5-0.2-10.7-2.3-13.1C194.5,17.4,187.7,16.4,182.8,18.6z M194.6,34.6
	c0,3.7-0.5,4.8-3.1,7c-3.4,2.9-7,3.4-8.9,1.1c-1.6-1.9-1.6-6.1,0-8c1-1.3,8.5-4.2,11.3-4.4C194.3,30.2,194.6,32.2,194.6,34.6z"/>
<path class="st0" d="M211.4,19.1c-5.2,1.6-6.3,3.1-2.3,3.1h2.5v11.5v11.5h-2.5c-1.4,0-2.5,0.4-2.5,1c0,0.6,3.3,1,8,1
	c4.4,0,8-0.4,8-0.9s-1.2-1.1-2.7-1.3l-2.8-0.3l-0.3-9.3c-0.3-8.7-0.1-9.4,2.2-11.7c3-3,7.4-3.3,10.7-0.6c2.3,1.8,2.4,2.6,2.4,13
	L232,47.2h5.3c5.2,0,7.4-1.6,3.1-2.2c-2.2-0.3-2.3-0.8-2.8-11.5c-0.6-13.2-1.7-15.2-9.2-16c-4-0.5-4.9-0.2-8.1,2.6l-3.6,3.2
	l-0.3-2.9l-0.3-2.8L211.4,19.1z"/>
<path class="st0" d="M291.6,19.4c-5.3,2.7-7.9,7.2-8,13.8c0,8.8,6,15,14.5,15c4.3,0,10.6-2.7,11.3-4.8c0.3-1.1-0.3-1-2.6,0.2
	c-7.4,3.8-15.6,0.1-16.9-7.7l-0.6-3.7h9.1c10.7,0,12.2-0.4,12.2-3.5c0-4.1-1.8-7.4-5.2-9.5C301.1,16.6,297.1,16.7,291.6,19.4z
	 M302.5,21.8c1.2,1.5,2.1,4,2.1,5.5v2.9H297h-7.7l0.6-3.8C291.1,19.4,298.5,16.7,302.5,21.8z"/>
<path class="st0" d="M318.4,19c-5.4,1.7-6.1,2.9-2,3.4c2.7,0.3,2.7,0.4,3,8.3c0.4,11.4-0.3,14.5-3.3,14.5c-1.4,0-2.5,0.4-2.5,1
	c0,0.6,3.5,1,8.5,1c4.7,0,8.5-0.4,8.5-0.9s-1.2-1.1-2.7-1.3c-2.8-0.3-2.8-0.4-3.1-8.5c-0.2-4.6,0.2-9.2,0.8-10.3
	c1.3-2.5,5.2-3.5,7.9-2c1.8,0.9,2.1,0.8,2.1-0.7c0-1,0.3-2.8,0.6-4.1c0.5-1.9,0.2-2.2-2.1-2.2c-1.9,0-3.9,1.2-6.1,3.6l-3.4,3.5v-3.5
	c0-2-0.3-3.5-0.7-3.5C323.4,17.4,321,18.2,318.4,19z"/>
</svg>
