<?xml version="1.0" encoding="utf-8"?>
<!-- Generator: Adobe Illustrator 21.0.0, SVG Export Plug-In . SVG Version: 6.00 Build 0)  -->
<svg version="1.1" id="Capa_1" xmlns="http://www.w3.org/2000/svg" xmlns:xlink="http://www.w3.org/1999/xlink" x="0px" y="0px"
	 viewBox="0 0 512 512" style="enable-background:new 0 0 512 512;" xml:space="preserve">
<style type="text/css">
	.st0{fill:#555555;}
</style>
<g>
	<g>
		<path class="st0" d="M256,512C114.8,512,0,397.2,0,256C0,114.8,114.8,0,256,0s256,114.8,256,256C512,397.2,397.2,512,256,512z
			 M256,29.3C131,29.3,29.3,131,29.3,256C29.3,381,131,482.7,256,482.7S482.7,381,482.7,256C482.7,131,381,29.3,256,29.3z"/>
	</g>
	<g>
		<path class="st0" d="M334.5,349.1c-3.8,0-7.5-1.4-10.4-4.3l-78.5-78.5c-2.8-2.8-4.3-6.5-4.3-10.4V89.9c0-8.1,6.5-14.6,14.6-14.6
			c8.1,0,14.6,6.5,14.6,14.6v160l74.2,74.2c5.7,5.7,5.7,15,0,20.7C342,347.7,338.2,349.1,334.5,349.1z"/>
	</g>
</g>
</svg>
