<?xml version="1.0" encoding="utf-8"?>
<!-- Generator: Adobe Illustrator 21.0.0, SVG Export Plug-In . SVG Version: 6.00 Build 0)  -->
<svg version="1.1" id="Capa_1" xmlns="http://www.w3.org/2000/svg" xmlns:xlink="http://www.w3.org/1999/xlink" x="0px" y="0px"
	 viewBox="0 0 512 512" style="enable-background:new 0 0 512 512;" xml:space="preserve">
<style type="text/css">
	.st0{fill:#555555;}
</style>
<g>
	<g>
		<path class="st0" d="M256,0C160.2,0,82.2,77.9,82.2,173.8c0,38.5,22.7,97.1,71.3,184.3c33.2,59.5,66.3,109.8,67.7,111.9l23.9,36.2
			c2.4,3.7,6.5,5.9,10.9,5.9c4.4,0,8.5-2.2,10.9-5.9l23.9-36.2c1.4-2.1,34.2-51.9,67.7-111.9c48.7-87.2,71.3-145.8,71.3-184.3
			C429.8,77.9,351.8,0,256,0z M335.7,345.3c-33,59.1-65.3,108.2-66.7,110.2l-13,19.7l-13-19.7c-1.4-2.1-33.9-51.6-66.7-110.2
			c-45.1-80.9-68-138.6-68-171.6C108.3,92.3,174.5,26,256,26s147.7,66.3,147.7,147.7C403.7,206.7,380.8,264.4,335.7,345.3z"/>
		<path class="st0" d="M256,76.3c-53.1,0-96.3,43.2-96.3,96.3S202.9,269,256,269s96.3-43.2,96.3-96.3S309.1,76.3,256,76.3z M256,243
			c-38.8,0-70.3-31.5-70.3-70.3s31.5-70.3,70.3-70.3c38.8,0,70.3,31.5,70.3,70.3S294.8,243,256,243z"/>
	</g>
</g>
</svg>
