<?xml version="1.0" encoding="iso-8859-1"?>
<!-- Generator: Adobe Illustrator 19.0.0, SVG Export Plug-In . SVG Version: 6.00 Build 0)  -->
<svg xmlns="http://www.w3.org/2000/svg" xmlns:xlink="http://www.w3.org/1999/xlink" version="1.1" id="Capa_1" x="0px" y="0px" viewBox="0 0 512 512" style="enable-background:new 0 0 512 512;" xml:space="preserve" width="512px" height="512px">
<g>
	<g>
		<g>
			<path d="M208.938,323.796c11.848-0.005,21.449-9.612,21.446-21.46c-0.003-11.848-9.609-21.45-21.457-21.449     s-21.451,9.606-21.451,21.454C187.491,314.187,197.092,323.785,208.938,323.796z M208.938,297.955     c2.422,0.005,4.382,1.971,4.379,4.393s-1.968,4.384-4.39,4.382c-2.422-0.001-4.385-1.965-4.385-4.387     C204.546,299.918,206.513,297.954,208.938,297.955z" fill="#555555"/>
			<path d="M486.4,409.13h-1.833l7.637-26.733c1.807-6.319,0.889-13.105-2.533-18.716c-3.422-5.611-9.035-9.535-15.479-10.821     l-58.816-11.739c-2.992-7.428-8.256-13.721-15.039-17.978l-95.354-60.096c-2.149-1.353-3.27-3.868-2.838-6.371l16.062-87.01     l0.001-0.003v-0.002l4.508-24.423c1.096-5.901-1.011-11.941-5.541-15.879l3.053-11.325c3.269-12.034-2.632-24.67-13.958-29.887     l-73.646-34.104c-7.927-3.673-17.18-3.049-24.542,1.655c-7.362,4.704-11.817,12.838-11.816,21.574v20.501     c-5.353,2.34-8.959,7.466-9.354,13.295l-4.621,41.958c-0.999,9.051-3.109,17.944-6.283,26.479l-31.45,84.588     c-3.052,8.295-5.232,16.885-6.506,25.631l-0.013,0.098c-0.967,6.239-1.47,12.541-1.506,18.854v32.203l-19.375-0.011l-8.708-27.1     c-1.954-4.901-5.379-9.076-9.804-11.95L62.929,278.58c-7.844-5.064-18.299-2.915-23.508,4.833l-4.212,6.317     c-7.14,10.608-4.939,24.92,5.058,32.892l16.483,13.271c2.033,1.631,3.204,4.106,3.175,6.713L59.8,357.93H25.6     c-4.713,0-8.533,3.82-8.533,8.533v25.6c-0.001,2.436,1.041,4.757,2.863,6.375l12.02,10.692H25.6c-14.138,0-25.6,11.462-25.6,25.6     s11.461,25.6,25.6,25.6h460.8c14.138,0,25.6-11.461,25.6-25.6S500.539,409.13,486.4,409.13z M443.733,364.18l8.533,1.703v8.688     c0.048,2.482-0.75,4.907-2.263,6.875c-0.909,1.205-2.291,1.963-3.796,2.083h-2.475V364.18z M418.133,376.121v-17.05l8.533,1.703     v31.289c0,4.713,3.82,8.533,8.533,8.533h11.008c6.547-0.097,12.716-3.083,16.854-8.158c4.096-5.05,6.313-11.365,6.271-17.867     v-5.282l1.517,0.303c1.774,0.345,3.319,1.426,4.25,2.975c0.946,1.537,1.199,3.403,0.696,5.137l-8.978,31.425h-64.047     l-17.067-17.067h16.487C410.992,392.054,418.124,384.922,418.133,376.121z M401.067,366.463v8.533h-33.751l5.218-6.708     c0.947-1.17,2.378-1.842,3.883-1.825H401.067z M378.638,409.13H178.058l27.227-18.152c4.183-0.694,8.303-1.721,12.323-3.069     c6.413-2.157,13.134-3.256,19.9-3.254h13.504c6.782-0.001,13.518,1.1,19.946,3.262c8.165,2.747,16.723,4.148,25.338,4.146h65.275     L378.638,409.13z M391.237,337.58c4.301,2.726,7.459,6.928,8.882,11.817h-23.703c-6.77,0-13.166,3.101-17.358,8.417     l-13.366,17.183h-8.231c12.994-15.904,21.98-34.695,26.204-54.793L391.237,337.58z M303.842,282.501l8.415,5.303l-4.827,8.076     c-1.646,2.137-4.569,2.82-6.992,1.633c-2.188-1.5-2.851-4.434-1.521-6.729L303.842,282.501z M213.333,77.272     c-0.027-2.919,1.464-5.642,3.938-7.192c2.446-1.591,5.541-1.8,8.179-0.554l73.65,34.104c3.774,1.741,5.741,5.951,4.654,9.963     l-2.545,9.439l-87.876-25.143V77.272z M203.879,112.935l102.054,29.2l-3.091,16.747c-25.38-3.687-50.457-9.226-75.03-16.572     l-26.302-7.864L203.879,112.935z M160.555,270.042l31.454-84.587c3.66-9.852,6.095-20.116,7.25-30.563l0.353-3.202l23.306,6.969     c25.164,7.519,50.841,13.201,76.829,17.002l-2.154,11.668l-21.942-5.379c-7.33-1.712-14.996,0.893-19.765,6.718l-8.381-2.022     c-2.54-0.555-5.196,0.052-7.241,1.657c-2.046,1.605-3.268,4.039-3.333,6.639c0.015,4.024,2.829,7.495,6.763,8.342l7.99,1.927     c1.538,7.436,7.201,13.334,14.568,15.173l24.145,5.939l-0.382,2.07h-37.766c-7.602,0.023-14.517,4.403-17.785,11.267h-8.498     c-4.713,0-8.533,3.82-8.533,8.533s3.821,8.533,8.533,8.533h8.499c3.269,6.862,10.183,11.24,17.784,11.263h35.156     c0.739,1.511,1.639,2.937,2.687,4.252l-5.83,9.806c-4.651,7.829-4.003,17.713,1.63,24.868l-4.013,7.011     c-1.521,2.646-1.513,5.902,0.022,8.54c1.534,2.638,4.361,4.256,7.412,4.242c3.052-0.013,5.864-1.656,7.375-4.307l4.22-7.371     c0.748,0.071,1.426,0.317,2.201,0.317c7.741,0.03,14.929-4.01,18.929-10.638l4.666-7.802l21.413,13.494     c-3.509,23.733-14.682,45.668-31.815,62.462l-2.214,2.133h-17.786c-6.775,0.001-13.505-1.101-19.925-3.262     c-8.172-2.748-16.737-4.148-25.358-4.146h-13.504c-8.624-0.002-17.19,1.401-25.363,4.154c-1.15,0.386-2.348,0.554-3.514,0.871     c3.005-3.694,4.663-8.301,4.702-13.063c-0.086-7.88-4.525-15.067-11.533-18.671c-14.531-7.782-26.787-19.212-35.562-33.167     l-11.003-17.841C156.389,283.111,158.169,276.473,160.555,270.042z M268.279,200.563L268.279,200.563     c0.382-1.473,1.871-2.372,3.353-2.025l22.856,5.601l-0.991,5.369l-23.135-5.691c-1.232-0.277-2.1-1.383-2.075-2.646     C268.287,200.742,268.313,200.421,268.279,200.563z M286.862,245.459l-1.008,5.463h-33.609c-1.508,0-2.731-1.223-2.731-2.731     c0-1.508,1.223-2.731,2.731-2.731H286.862z M153.6,319.313c10.185,15.297,23.963,27.865,40.129,36.604     c1.45,0.652,2.424,2.048,2.537,3.633c-0.03,0.871-0.351,1.708-0.912,2.375l-10.927,13.071H153.6V319.313z M50.967,309.33     c-3.079-2.455-3.757-6.862-1.558-10.129l4.213-6.313l35.708,23.233c1.321,0.835,2.385,2.018,3.075,3.421l8.504,26.538     c2.253,7.068,8.823,11.863,16.242,11.854l19.383,0.011v18.176c0.022,0.74,0.097,1.477,0.223,2.206l-26.69,6.373     c-5.779,1.335-11.839-0.386-16.054-4.558l-17.184-17.184l0.163-20.22c0.086-7.825-3.435-15.253-9.546-20.142L50.967,309.33z      M34.133,374.996h30.6l17.212,17.212c6.452,6.408,15.177,10.005,24.271,10.004c2.629,0.001,5.25-0.306,7.808-0.912l38.695-9.237     h20.172l-25.6,17.067H57.626l-23.493-20.896V374.996z M486.4,443.263H25.6c-4.713,0-8.533-3.82-8.533-8.533     s3.82-8.533,8.533-8.533h460.8c4.713,0,8.533,3.82,8.533,8.533S491.113,443.263,486.4,443.263z" fill="#555555"/>
		</g>
	</g>
</g>
<g>
</g>
<g>
</g>
<g>
</g>
<g>
</g>
<g>
</g>
<g>
</g>
<g>
</g>
<g>
</g>
<g>
</g>
<g>
</g>
<g>
</g>
<g>
</g>
<g>
</g>
<g>
</g>
<g>
</g>
</svg>
