<?xml version="1.0" encoding="iso-8859-1"?>
<!-- Generator: Adobe Illustrator 19.0.0, SVG Export Plug-In . SVG Version: 6.00 Build 0)  -->
<svg xmlns="http://www.w3.org/2000/svg" xmlns:xlink="http://www.w3.org/1999/xlink" version="1.1" id="Capa_1" x="0px" y="0px" viewBox="0 0 391.758 391.758" style="enable-background:new 0 0 391.758 391.758;" xml:space="preserve" width="512px" height="512px">
<g>
	<path d="M379.515,159.153h-30.606h-12.242h-6.121h-12.242h-24.485h-12.242h-6.121h-12.242h-24.485h-12.242h-6.121h-12.242h-36.727   h-6.121h-36.727h-12.242h-6.121H97.939H73.455H61.212h-6.121H42.848H12.242V30.607c0-10.124,8.239-18.364,18.364-18.364h330.545   c10.124,0,18.364,8.239,18.364,18.364V159.153z M379.515,361.153c0,10.124-8.239,18.364-18.364,18.364h-24.485V293.82h6.121   c3.367,0,6.121-2.755,6.121-6.121V165.274h30.606v195.879H379.515z M330.545,379.516h-48.97v-85.697h6.121   c3.367,0,6.121-2.755,6.121-6.121V165.274h24.485v122.424c0,3.367,2.755,6.121,6.121,6.121h6.121v85.697H330.545z M275.455,379.516   h-48.97v-85.697h6.121c3.367,0,6.121-2.755,6.121-6.121V165.274h24.485v122.424c0,3.367,2.755,6.121,6.121,6.121h6.121v85.697   H275.455z M220.364,379.516h-48.97V165.274h36.727v122.424c0,3.367,2.755,6.121,6.121,6.121h6.121L220.364,379.516L220.364,379.516   z M165.273,379.516h-48.97v-85.697h6.121c3.367,0,6.121-2.755,6.121-6.121V165.274h36.727L165.273,379.516L165.273,379.516z    M110.182,379.516h-48.97v-85.697h6.121c3.367,0,6.121-2.755,6.121-6.121V165.274h24.485v122.424c0,3.367,2.755,6.121,6.121,6.121   h6.121L110.182,379.516L110.182,379.516z M55.091,379.516H30.606c-10.124,0-18.364-8.239-18.364-18.364V165.274h30.606v122.424   c0,3.367,2.755,6.121,6.121,6.121h6.121v85.697H55.091z M361.152,0.001H30.606C13.705,0.001,0,13.706,0,30.607v128.545v195.879   v6.121c0,16.901,13.705,30.606,30.606,30.606h6.121h18.364h6.121h48.97h6.121h48.97h6.121h48.97h6.121h48.97h6.121h48.97h6.121   h18.364h6.121c16.901,0,30.606-13.705,30.606-30.606v-6.121V159.153V30.607C391.758,13.706,378.052,0.001,361.152,0.001   L361.152,0.001z M91.818,48.971h12.242c3.367,0,6.121-2.755,6.121-6.121s-2.755-6.121-6.121-6.121H91.818   c-3.367,0-6.121,2.755-6.121,6.121S88.452,48.971,91.818,48.971L91.818,48.971z M67.333,48.971c3.379,0,6.121-2.742,6.121-6.121   s-2.742-6.121-6.121-6.121c-3.379,0-6.121,2.742-6.121,6.121S63.954,48.971,67.333,48.971L67.333,48.971z M42.848,48.971   c3.379,0,6.121-2.742,6.121-6.121s-2.742-6.121-6.121-6.121s-6.121,2.742-6.121,6.121S39.47,48.971,42.848,48.971L42.848,48.971z    M318.303,39.789c0-1.689-1.371-3.061-3.061-3.061s-3.061,1.371-3.061,3.061v39.788h-6.121v12.242h6.121v39.788   c0,1.689,1.371,3.061,3.061,3.061s3.061-1.371,3.061-3.061V91.819h6.121V79.577h-6.121V39.789z M355.03,39.789   c0-1.689-1.371-3.061-3.061-3.061s-3.061,1.371-3.061,3.061v39.788h-6.121v12.242h6.121v39.788c0,1.689,1.371,3.061,3.061,3.061   s3.061-1.371,3.061-3.061V91.819h6.121V79.577h-6.121V39.789z M247.909,116.304H262.9c-1.42,6.978-7.603,12.242-14.991,12.242   c-8.435,0-15.303-6.868-15.303-15.303s6.868-15.303,15.303-15.303c7.388,0,13.571,5.264,14.991,12.242h-14.991   c-1.689,0-3.061,1.371-3.061,3.061S246.22,116.304,247.909,116.304L247.909,116.304z M247.909,91.819   c-11.832,0-21.424,9.592-21.424,21.424s9.592,21.424,21.424,21.424s21.424-9.592,21.424-21.424S259.741,91.819,247.909,91.819   L247.909,91.819z M192.818,116.304h14.991c-1.42,6.978-7.603,12.242-14.991,12.242c-8.435,0-15.303-6.868-15.303-15.303   s6.868-15.303,15.303-15.303c7.388,0,13.571,5.264,14.991,12.242h-14.991c-1.689,0-3.061,1.371-3.061,3.061   S191.129,116.304,192.818,116.304L192.818,116.304z M192.818,91.819c-11.832,0-21.424,9.592-21.424,21.424   s9.592,21.424,21.424,21.424s21.424-9.592,21.424-21.424S204.65,91.819,192.818,91.819L192.818,91.819z M250.97,73.143v-14.99   c0-1.689-1.371-3.061-3.061-3.061c-1.689,0-3.061,1.371-3.061,3.061v14.991c-6.978-1.42-12.242-7.603-12.242-14.991   c0-8.435,6.868-15.303,15.303-15.303c8.435,0,15.303,6.868,15.303,15.303C263.212,65.541,257.948,71.723,250.97,73.143   L250.97,73.143z M247.909,36.728c-11.832,0-21.424,9.592-21.424,21.424s9.592,21.424,21.424,21.424s21.424-9.592,21.424-21.424   S259.741,36.728,247.909,36.728L247.909,36.728z M128.545,122.425c0,3.373-2.748,6.121-6.121,6.121H48.97   c-3.373,0-6.121-2.748-6.121-6.121v-48.97c0-3.373,2.748-6.121,6.121-6.121h73.455c3.373,0,6.121,2.748,6.121,6.121v48.97H128.545z    M122.424,61.213H48.97c-6.764,0-12.242,5.478-12.242,12.242v48.97c0,6.764,5.478,12.242,12.242,12.242h73.455   c6.764,0,12.242-5.478,12.242-12.242v-48.97C134.667,66.692,129.188,61.213,122.424,61.213L122.424,61.213z M192.818,73.456   c-8.435,0-15.303-6.868-15.303-15.303c0-7.388,5.264-13.571,12.242-14.991v14.991c0,1.689,1.371,3.061,3.061,3.061   c1.689,0,3.061-1.371,3.061-3.061V43.162c6.978,1.42,12.242,7.603,12.242,14.991C208.121,66.588,201.253,73.456,192.818,73.456   L192.818,73.456z M192.818,36.728c-11.832,0-21.424,9.592-21.424,21.424s9.592,21.424,21.424,21.424s21.424-9.592,21.424-21.424   S204.65,36.728,192.818,36.728L192.818,36.728z" fill="#555555"/>
</g>
<g>
</g>
<g>
</g>
<g>
</g>
<g>
</g>
<g>
</g>
<g>
</g>
<g>
</g>
<g>
</g>
<g>
</g>
<g>
</g>
<g>
</g>
<g>
</g>
<g>
</g>
<g>
</g>
<g>
</g>
</svg>
