<?xml version="1.0" encoding="utf-8"?>
<!-- Generator: Adobe Illustrator 21.0.0, SVG Export Plug-In . SVG Version: 6.00 Build 0)  -->
<svg version="1.1" id="Layer_1" xmlns="http://www.w3.org/2000/svg" xmlns:xlink="http://www.w3.org/1999/xlink" x="0px" y="0px"
	 viewBox="0 0 608 250" style="enable-background:new 0 0 608 250;" xml:space="preserve">
<style type="text/css">
	.st0{fill:#E30613;}
</style>
<path class="st0" d="M138.4,4.1c-8.6,1.1-13.9,2.6-21.1,6.2C91.2,23,75.9,53.1,81.4,81.1c2.3,11.9,8.2,23.3,16.3,31.9
	c12.1,12.8,24,18.8,43.2,21.4c13.5,1.9,18.7,4.4,26.2,12.3c7.4,7.8,10.3,14.9,10.3,24.8c0,6.7-0.4,8.9-2.9,14
	c-8.1,16.9-26.2,25.1-43.1,19.5c-6.2-2.1-7.8-3.2-15.1-10.6c-4.7-4.8-9-8.4-10.1-8.4c-3.3,0-26.7,16.8-27.7,19.9
	c-2.4,7.7,16.7,26.8,34.4,34.2c40.7,17,87.1-4.6,100.9-46.9c2.1-6.5,2.5-9.7,2.6-21.2c0.1-15.6-1.6-22.6-8.7-36.5
	c-4.9-9.4-17.7-22.9-27-28.4c-8.8-5.2-20.7-9-31.4-10.1c-11-1.2-17.2-3.6-22.6-8.8c-6.4-6.1-8.2-10.5-8.2-19.7
	c0-5.7,0.5-8.9,1.8-11.2c2.9-5.5,7.8-10.3,13.1-13.1c4.2-2.2,6.4-2.7,12.6-2.6c8.6,0,13.3,2,18.9,7.8c1.9,2,4,3.6,4.6,3.6
	c1.2,0,5.8-3.2,19.4-13.8c10.7-8.3,10.8-9.6,1.1-18.5C176.3,8.1,156.7,1.7,138.4,4.1z"/>
<path class="st0" d="M6.3,9.5c-1.2,0.9-2.7,3.2-3.3,5.3c-0.6,2.4-1,39.9-1,110c0,116.8-0.3,111.5,6,114.7c2.6,1.3,5.5,1.6,14.2,1.3
	c10.6-0.3,11.1-0.4,13.4-3.1l2.4-2.8v-111v-111l-2.5-2.4C33.2,8.1,32.5,8,20.8,8C11.3,8,7.9,8.4,6.3,9.5z"/>
<path class="st0" d="M255.3,10c-2.1,1.2-3.6,3.2-4.3,5.7c-0.8,2.7-1,35.1-0.8,112.1l0.3,108.4l2.8,2.4l2.8,2.4h64.5
	c45.6,0,65.2-0.3,66.7-1.1c5-2.6,5.7-4.6,5.7-17.2c0-11.8,0-11.9-2.9-14.8l-2.9-2.9h-46.1c-33.5,0-46.7-0.3-48.6-1.2
	c-5.1-2.3-5.5-4.5-5.5-32.5c0-25.2,0.1-25.9,2.3-28.6c1.2-1.5,3.6-3.1,5.2-3.6c1.7-0.4,19.5-0.8,39.7-0.7
	c20.3,0.1,38.2-0.3,39.8-0.7c5.4-1.4,7-5.6,7-17.9c0-10.5-0.1-10.9-2.9-14l-2.9-3.3l-41.7-0.5l-41.7-0.5l-2.4-2.8
	c-2.4-2.8-2.4-2.9-2.4-25.5c0-24.5,0.2-25.3,5.7-28.1C294.2,44.3,309,44,341,44h46.2l2.9-2.9c2.9-2.9,2.9-3.1,2.9-14.6
	c0-6.4-0.5-12.5-1-13.6C389.3,8,389.6,8,321.8,8C260.8,8,258.4,8.1,255.3,10z"/>
<path class="st0" d="M435.2,9.2c-1.2,0.6-2.7,2.7-3.3,4.7c-0.7,2.4-0.9,39.1-0.7,112.3l0.3,108.8l2.8,2.7c2.6,2.7,3.3,2.8,13.3,3.1
	c6.8,0.3,11.6,0,13.5-0.8c6.2-2.6,5.9,0.9,5.9-73.1c0-64.8,0.1-67.8,1.9-70c1.6-2,2.2-2.2,4.3-1.2c1.6,0.7,19.3,25.1,49.3,68
	c25.7,36.7,48.1,68.3,49.9,70.1c5.5,5.9,9.7,7.4,19.2,7c7.6-0.3,8.6-0.6,11.1-3.1l2.8-2.7V123.9V12.8l-2.9-2.5
	c-2.8-2.4-3.3-2.4-15.8-2.1c-12.2,0.3-13.1,0.4-14.9,2.7c-1.8,2.2-1.9,5-2,70c-0.1,37.2-0.4,68.7-0.8,70.1c-0.5,1.7-1.5,2.6-3.3,2.8
	c-3.2,0.4,2,7.4-55.3-73.8c-24.6-34.9-46-64.8-47.4-66.3c-4.3-4.7-7.2-5.7-16.8-5.6C441.5,8.1,436.5,8.6,435.2,9.2z"/>
</svg>
