<?xml version="1.0" encoding="utf-8"?>
<!-- Generator: Adobe Illustrator 21.0.0, SVG Export Plug-In . SVG Version: 6.00 Build 0)  -->
<svg version="1.1" id="Layer_1" xmlns="http://www.w3.org/2000/svg" xmlns:xlink="http://www.w3.org/1999/xlink" x="0px" y="0px"
	 viewBox="0 0 512 512" style="enable-background:new 0 0 512 512;" xml:space="preserve">
<style type="text/css">
	.st0{fill:#555555;}
</style>
<g>
	<g>
		<path class="st0" d="M226.9,399.9c-20,18.4-47.6,22.6-72.1,10.8c-8.9-4.3-16.3-10.1-22.2-17.2l-33.3,73.7c-1.5,3.4,0.2,5.9,1,6.8
			c0.8,0.9,3,3,6.6,2l24.3-6.8c2.8-0.8,5.6-1.1,8.3-1.1c11.6,0,22.6,6.6,27.8,17.5l11,22.7c1.6,3.3,4.6,3.6,5.9,3.6
			c1.2,0,4.2-0.4,5.8-3.8l53-117.3C237.1,392.6,231.6,395.6,226.9,399.9z"/>
	</g>
</g>
<g>
	<g>
		<path class="st0" d="M412.6,467.3l-33.3-73.7c-5.8,7.1-13.3,12.9-22.2,17.2c-24.5,11.8-52.1,7.7-72.1-10.8c-4.7-4.3-10.2-7.3-16-9
			l53,117.3c1.5,3.4,4.5,3.8,5.8,3.8c1.3,0,4.3-0.3,5.9-3.6l11-22.7c5.3-10.9,16.2-17.5,27.8-17.5c2.8,0,5.6,0.4,8.3,1.1l24.3,6.8
			c3.5,1,5.8-1.1,6.6-2C412.5,473.2,414.1,470.6,412.6,467.3z"/>
	</g>
</g>
<g>
	<g>
		<path class="st0" d="M438.8,207.8c-27.7-19-36.3-56.6-19.6-85.7c10.1-17.5,4.8-34.8-3.4-45.1c-8.2-10.3-23.9-19.3-43.2-13.4
			c-32.1,9.8-66.9-6.9-79.2-38.1C286,6.7,269.2,0,256,0c-13.2,0-30,6.7-37.4,25.5c-12.3,31.2-47.1,48-79.2,38.1
			c-19.3-5.9-35,3-43.2,13.4c-8.2,10.3-13.5,27.6-3.4,45.1c16.7,29.1,8.1,66.7-19.6,85.7c-16.6,11.4-19.4,29.2-16.5,42.1
			c2.9,12.9,13.2,27.8,33.1,30.8c33.2,5.1,57.2,35.3,54.8,68.7c-1.5,20.1,10.7,33.4,22.7,39.2c11.9,5.7,29.9,7,44.7-6.7
			c12.3-11.4,28.1-17.1,44-17.1c15.8,0,31.6,5.7,44,17.1c14.8,13.7,32.8,12.4,44.8,6.7c11.9-5.7,24.1-19,22.7-39.2
			c-2.4-33.5,21.6-63.7,54.8-68.7c19.9-3,30.2-17.9,33.1-30.8C458.3,237,455.5,219.2,438.8,207.8z M256,335.9
			c-72.6,0-131.6-59-131.6-131.6S183.4,72.7,256,72.7s131.6,59,131.6,131.6C387.6,276.9,328.6,335.9,256,335.9z"/>
	</g>
</g>
<g>
	<g>
		<path class="st0" d="M256,97.2c-59,0-107.1,48-107.1,107.1S197,311.4,256,311.4s107.1-48,107.1-107.1S315,97.2,256,97.2z
			 M310.9,193.9l-66.6,48.7c-2.1,1.5-4.7,2.4-7.2,2.4c-0.7,0-1.3-0.1-2-0.2c-3.2-0.5-6.1-2.4-8-5.1L207,211.4
			c-3.9-5.5-2.6-13.2,3-17.1c5.5-3.9,13.2-2.6,17.1,3l12.8,18.2l56.5-41.3c5.5-4,13.1-2.8,17.1,2.7
			C317.5,182.2,316.3,189.9,310.9,193.9z"/>
	</g>
</g>
</svg>
