<?xml version="1.0" encoding="utf-8"?>
<!-- Generator: Adobe Illustrator 21.0.0, SVG Export Plug-In . SVG Version: 6.00 Build 0)  -->
<svg version="1.1" id="Layer_1" xmlns="http://www.w3.org/2000/svg" xmlns:xlink="http://www.w3.org/1999/xlink" x="0px" y="0px"
	 viewBox="0 0 604 243" style="enable-background:new 0 0 604 243;" xml:space="preserve">
<style type="text/css">
	.st0{fill:#FBFCFC;}
</style>
<g transform="translate(-1.252539,336.817753) scale(0.100000,-0.100000)">
	<path class="st0" d="M2216.7,3311.8c-237.1-34.6-456.8-189.3-579.3-409c-58.7-105.2-106.2-248.6-124.1-374.3
		c-11.2-74.9-9.5-256.4,2.2-333.4c29.6-188.6,96.2-347.5,202.4-483.1c106.8-135.6,238.2-224.6,394.2-267.7
		c67.7-18.4,208.6-21.2,280.1-5.7l59.8,13.4l63.2-62.9c205.2-202.7,366.2-326.3,501-384.2c55.9-24,64.9-26.1,127.5-26.8
		c55.4,0,74.4,2.8,109,16.2c51.4,20.5,109.6,58.6,138.1,90.4l21.2,23.3l-22.4,0.7c-40.3,0-127.5,19.8-173.3,38.8
		c-99.5,41-235.4,139.1-346.7,250.7c-62.1,62.2-159.3,169.5-159.3,175.9c0,2.8,13.4,12.7,29.6,23.3c74.4,45.9,166.6,154,224.2,263.5
		c86.7,163.9,128.6,336.9,128.6,529.7c0,205.5-45.8,385.6-136.4,539.6c-61.5,103.8-166.6,215.4-256.6,272.6
		C2556.6,3293.4,2372.1,3335.1,2216.7,3311.8z M2411.3,3108.4c159.3-41.7,286.8-171.6,366.2-373.6c89.5-228.1,96.2-519.8,16.8-733.9
		c-72.1-194.9-195.1-318.5-366.2-367.3c-53.7-15.5-182.3-14.8-236.5,0c-220.3,62.9-379.1,286.1-430,603.9
		c-7.3,45.2-9.5,93.9-9.5,181.5c0,106.7,2.2,127.8,15.1,190.7c55.9,265.6,213,454.2,416,500.8
		C2247.4,3125.3,2350.9,3124.6,2411.3,3108.4z"/>
	<path class="st0" d="M5418.2,3308.3c-110.1-19.8-185.6-49.4-273.4-108.1c-247.1-164.6-383-485.9-369.6-876.5
		c12.3-360.2,143.1-627.9,381.3-779.1c134.7-84.8,291.9-122.9,478-115.8c108.5,4.2,166.6,17,246.6,53.7l48.1,22.6l52,149.7
		c28.5,82.6,54.8,154,58.1,159.6c7.8,12,9.5,13.4-70.4-36.7c-68.8-43.1-170-88.3-239.3-107.4c-56.5-15.5-195.7-21.9-249.4-10.6
		c-270.1,54.4-460.7,369.4-460.7,758.6c0,327.7,141.5,576.3,371.8,654.7c60.9,21.2,201.3,22.6,270.1,4.2
		c82.8-23.3,170-65,235.9-113.7l33.5-24.7v154.7v154.7l-20.7,7.1c-44.2,14.8-175,43.8-239.3,53
		C5587.1,3320.3,5485.3,3320.3,5418.2,3308.3z"/>
	<path class="st0" d="M45.6,3268c30.8-24,59.8-65.7,71.6-102.4l12.9-40.3l3.4-596.8c3.4-564.3,3.9-600.4,14.5-660.4
		c21.2-119.4,55.4-198.5,117.4-272.6c60.4-72.7,125.8-116.5,223.6-149c43.1-14.1,62.1-16.2,149.8-16.2c85.5,0,107.9,2.8,149.8,16.2
		c104,33.2,176.1,79.8,239.9,155.4l38,45.2v-89v-89h161l160.5,0.7l-20.7,13.4c-29.1,19.8-53.1,60-67.7,113l-12.3,45.9l-1.7,692.2
		c-1.1,475.3,0,709.8,4.5,748.7c8.4,79.1,32.4,140.6,64.9,165.3c13.4,9.9,24.6,20.5,24.6,24c0,2.8-92.3,4.9-205.2,4.9
		s-203-2.8-199.6-5.7c2.8-2.8,14.5-14.8,26.8-25.4c26.3-24.7,50.9-87.6,58.7-152.6c8.4-64.3,8.4-1106.1,0-1162.6
		c-31.3-216.8-261.1-361.6-468-295.2c-86.7,27.5-152.6,97.5-190.7,202c-41.9,114.4-41.4,99.6-44.7,651.9
		c-3.4,529-2.2,601.1,14,664.6c10.1,40.3,42.5,91.1,72.1,113.7c8.9,6.4-33.5,8.5-198.5,8.5C80.3,3276.5,37.2,3274.4,45.6,3268z"/>
	<path class="st0" d="M3724.7,3268c40.8-33.2,45.8-39.6,53.7-66.4c6.7-25.4,6.7-36.7,0.6-73.5c-6.7-43.8-427.2-1381.5-457.9-1458.5
		c-28.5-71.3-64.9-126.4-107.9-164.6l-40.3-36h200.7h200.7l-27.4,19.8c-35.2,24.7-49.2,48.7-52.6,91.8
		c-3.4,45.2,3.4,72.7,81.6,342.6l64.9,223.9l276.8-1.4l276.2-2.1l78.3-257.8c101.8-333.4,102.9-351.7,35.2-394.1
		c-14-9.2-25.7-17.7-25.7-19.8c0-1.4,100.1-2.8,222.5-2.8h222l-19.6,15.5c-66,52.3-115.7,133.5-157.7,259.9
		c-14,41-130.3,402.6-258.9,803.8l-234.3,728.9l-170.5-0.7C3750.4,3276.5,3716.3,3274.4,3724.7,3268z M4023.8,2694.5
		c56.5-182.2,103.4-336.2,105.1-340.4c2.2-7.1-42.5-9.2-213-9.2c-125.2,0-215.8,2.8-215.8,6.4c0,6.4,205.2,670.3,210.8,680.9
		c1.7,3.5,5,3.5,7.3,0C3920.3,3029.3,3967.9,2877.4,4023.8,2694.5z"/>
</g>
</svg>
